<?xml version="1.0" standalone="no"?>
<!DOCTYPE svg PUBLIC "-//W3C//DTD SVG 20010904//EN"
 "http://www.w3.org/TR/2001/REC-SVG-20010904/DTD/svg10.dtd">
<svg version="1.0" xmlns="http://www.w3.org/2000/svg"
 width="700.000000pt" height="700.000000pt" viewBox="0 0 700.000000 700.000000"
 preserveAspectRatio="xMidYMid meet">
<metadata>
Created by potrace 1.14, written by Peter Selinger 2001-2017
</metadata>
<g transform="translate(0.000000,700.000000) scale(0.100000,-0.100000)"
fill="#000000" stroke="none">
<path d="M3038 6365 c-1 -1 -24 -5 -49 -8 -97 -12 -194 -50 -300 -117 l-48
-31 -108 30 c-159 44 -352 81 -503 96 -153 15 -210 17 -391 17 -266 0 -475
-18 -564 -47 -134 -45 -246 -155 -298 -293 -19 -51 -22 -78 -22 -242 0 -154 3
-195 19 -244 18 -56 74 -150 126 -210 40 -45 139 -111 220 -145 115 -49 313
-149 543 -275 115 -63 238 -127 275 -142 37 -15 71 -31 75 -35 5 -3 -1 -25
-12 -47 -26 -51 -39 -136 -29 -185 4 -22 25 -69 46 -105 l37 -67 1 -147 c1
-137 3 -150 27 -200 15 -30 51 -78 81 -106 l54 -52 -4 -62 c-5 -84 -13 -175
-19 -218 -3 -19 -7 -50 -9 -68 -3 -17 -27 -71 -54 -120 -208 -365 -437 -839
-539 -1115 -110 -301 -127 -452 -66 -577 18 -36 46 -80 63 -97 l30 -31 -37
-15 c-82 -32 -161 -49 -252 -53 -111 -6 -153 -17 -199 -51 -102 -76 -157 -300
-118 -483 31 -144 96 -235 190 -266 54 -18 -44 -18 2661 -10 1312 4 1267 2
1435 45 84 21 243 91 303 133 l28 20 67 -27 c245 -100 439 -125 506 -67 58 53
63 123 20 293 -37 149 -41 170 -49 281 -3 42 -14 106 -26 144 -17 55 -19 74
-10 108 12 48 28 126 36 176 10 61 13 342 5 415 -19 164 -23 187 -46 290 -9
39 -18 80 -20 92 -18 96 -162 501 -208 588 -9 17 -16 33 -16 38 0 8 -155 320
-218 439 -115 216 -292 485 -462 698 -41 52 -77 97 -80 100 -3 3 -30 34 -60
70 -180 212 -493 510 -697 664 -48 36 -51 42 -51 81 0 94 -45 173 -126 220
-24 14 -90 41 -147 61 -132 45 -251 105 -309 153 -100 84 -167 106 -260 88
-25 -5 -42 -3 -55 7 -18 13 -18 16 18 67 117 172 83 334 -97 450 -74 48 -153
78 -225 85 -31 3 -61 7 -68 9 -6 2 -13 2 -15 0z"/>
</g>
</svg>
